<svg width="52" height="52" viewBox="0 0 52 52" fill="none" xmlns="http://www.w3.org/2000/svg">
<g clip-path="url(#clip0_2134_213)">
<path d="M45.2459 0.000270758C35.7263 0.054421 29.117 8.5122 33.0577 16.5511C26.8301 20.0214 23.4442 24.6831 21.0661 29.4182C18.8187 29.0172 17.4051 27.2383 16.2591 25.0094C15.5103 29.993 17.0258 33.043 17.9455 36.608C15.9878 41.3943 14.0639 45.6744 10.0518 48.5478C7.11972 50.6496 4.34141 50.1493 2.98555 48.6169C2.30768 47.8508 1.94092 46.8076 2.10267 45.4751C2.26309 44.1542 2.97958 42.5363 4.5639 40.7817C5.88778 39.642 6.96339 39.1941 7.67888 39.1187C8.40378 39.0424 8.76921 39.2538 9.04381 39.6C9.5929 40.2924 9.60231 41.9141 8.21625 43.0833L9.54533 44.6751C11.6585 42.8927 12.0541 40.0622 10.6608 38.3049C9.96409 37.4265 8.77596 36.9139 7.46336 37.0521C6.15065 37.1906 4.721 37.8919 3.16124 39.2493L3.11588 39.2889L3.07539 39.3333C1.24214 41.347 0.276718 43.3607 0.0505762 45.2235C-0.175566 47.0863 0.368768 48.7865 1.44084 49.998C3.58498 52.4209 7.66118 52.8136 11.2521 50.2399C11.9133 49.7659 12.5416 49.2468 13.1323 48.6867C16.4389 47.8275 19.6558 47.4925 23.3441 44.5241C20.9995 44.6327 18.8773 44.3349 17.4204 42.8418C18.9034 40.0302 20.0035 36.9692 21.2683 33.9609C22.4842 31.0679 23.8346 28.2082 25.7905 25.5596C28.8542 25.6602 31.8467 25.8869 35.7627 24.1706C33.3911 23.6461 31.3627 22.7602 30.3722 20.8162C31.5128 19.9144 32.7913 19.0623 34.2378 18.2707C41.2356 23.1256 53.4517 16.3479 51.8582 5.9062L48.0093 6.76093L50.6679 2.12425L45.5424 3.16878L46.7596 0.0620932C46.2479 0.0176166 45.7429 -0.00262022 45.2459 0.000270758ZM17.5683 3.35102C8.93782 11.821 10.3266 22.6791 18.9208 23.2693C29.969 24.0462 19.0753 11.3122 17.5683 3.35102ZM29.7812 27.6489C27.7727 27.6358 26.2535 28.7799 25.5612 32.1083C23.7999 40.5859 36.955 42.1434 45.3819 33.4676C40.0591 32.5543 33.894 27.6756 29.7812 27.6489Z" fill="black"/>
<path d="M34.0383 15.992C30.5097 8.71037 36.428 1.04929 44.9521 1.00025C45.3971 0.997627 45.8494 1.01596 46.3076 1.05624L45.2176 3.87029L49.8072 2.92415L47.4265 7.12407L50.873 6.34986C52.2999 15.8079 41.3612 21.9473 35.0951 17.5496L34.0383 15.992Z" fill="#BC2222"/>
<path d="M33.9806 16.1592C30.6481 9.28202 36.2375 2.04656 44.2881 2.00023C44.7084 1.99776 45.1355 2.01507 45.5682 2.05312L44.5389 4.71083L48.8734 3.81725L46.6251 7.78385L49.8801 7.05264C51.2277 15.9853 40.8967 21.7835 34.9787 17.6302L33.9806 16.1592Z" fill="black"/>
<path d="M8.5 21L9.44532 23.1897L12 24L9.44532 24.8103L8.5 27L7.55468 24.8103L5 24L7.55468 23.1897L8.5 21Z" fill="#BC2222"/>
<path d="M45 20L45.5402 21.4598L47 22L45.5402 22.5402L45 24L44.4598 22.5402L43 22L44.4598 21.4598L45 20Z" fill="#BC2222"/>
<path d="M41.5 17L42.1752 18.8248L44 19.5L42.1752 20.1752L41.5 22L40.8248 20.1752L39 19.5L40.8248 18.8248L41.5 17Z" fill="white"/>
<path d="M11.5 18L12.1752 19.8248L14 20.5L12.1752 21.1752L11.5 23L10.8248 21.1752L9 20.5L10.8248 19.8248L11.5 18Z" fill="white"/>
<path d="M25.5 33L27.2556 37.7444L32 39.5L27.2556 41.2556L25.5 46L23.7444 41.2556L19 39.5L23.7444 37.7444L25.5 33Z" fill="white"/>
</g>
<defs>
<clipPath id="clip0_2134_213">
<rect width="52" height="52.0002" fill="white"/>
</clipPath>
</defs>
</svg>
